<?xml version="1.0" ?><!DOCTYPE svg  PUBLIC '-//W3C//DTD SVG 1.1//EN'  'http://www.w3.org/Graphics/SVG/1.1/DTD/svg11.dtd'><svg height="50px" id="Livello_1" style="enable-background:new 0 0 50 50;" version="1.1" viewBox="0 0 50 50" width="50px" xml:space="preserve" xmlns="http://www.w3.org/2000/svg" xmlns:xlink="http://www.w3.org/1999/xlink"><g><path d="M25,46.433c-5.914,0-11.28-2.378-15.121-6.28c-3.902-3.842-6.28-9.207-6.28-15.122c0-5.914,2.378-11.28,6.28-15.183   c3.841-3.902,9.207-6.28,15.121-6.28c5.915,0,11.28,2.378,15.182,6.28c3.842,3.902,6.221,9.269,6.221,15.183   c0,5.915-2.379,11.28-6.221,15.122C36.279,44.055,30.914,46.433,25,46.433z M22.622,21.799h-3.171v3.964h3.171v9.634h3.964v-9.634   h3.963v-3.964h-3.963v-2.012c0-0.671,0.365-1.22,0.791-1.22h3.172v-3.902h-3.172c-2.622,0-4.755,2.317-4.755,5.183V21.799z"/></g></svg>